<svg width="60" height="60" viewBox="0 0 60 60" fill="none" xmlns="http://www.w3.org/2000/svg">
<rect width="60" height="60" rx="30" fill="#1A1A1A"/>
<path d="M44.8359 17.668H15.1641C13.4194 17.668 12 19.0874 12 20.832V39.1683C12 40.9129 13.4194 42.3323 15.1641 42.3323H44.8359C46.5806 42.3323 48 40.9129 48 39.1683V20.832C48 19.0874 46.5806 17.668 44.8359 17.668ZM44.423 19.7773L44.0007 20.129L31.2554 30.742C30.5279 31.3477 29.472 31.3477 28.7446 30.742L15.9993 20.129L15.577 19.7773H44.423ZM14.1094 21.3002L24.494 29.9474L14.1094 36.8586V21.3002ZM44.8359 40.223H15.1641C14.6544 40.223 14.2282 39.8596 14.1305 39.3784L26.1853 31.3557L27.3949 32.363C28.1497 32.9915 29.0749 33.3057 30.0001 33.3057C30.9252 33.3057 31.8504 32.9915 32.6052 32.363L33.8149 31.3557L45.8695 39.3784C45.7718 39.8596 45.3456 40.223 44.8359 40.223ZM45.8906 36.8586L35.506 29.9475L45.8906 21.3002V36.8586Z" fill="#F2F2F2"/>
</svg>
