<svg width="20" height="20" viewBox="0 0 20 20" fill="none" xmlns="http://www.w3.org/2000/svg">
<path fill-rule="evenodd" clip-rule="evenodd" d="M2.16178 9.52474C2.2383 9.42448 3.10695 8.3029 4.49058 7.20333C5.86822 6.10853 7.80106 5 9.99988 5C12.1987 5 14.1315 6.10853 15.5091 7.20336C16.8924 8.30263 17.7609 9.42393 17.8379 9.52481C18.0541 9.80783 18.054 10.1922 17.838 10.4752C17.7615 10.5753 16.8928 11.6971 15.5091 12.7967C14.1315 13.8915 12.1987 15 9.99988 15C7.80106 15 5.86822 13.8915 4.49058 12.7966C3.10696 11.6971 2.2383 10.5754 2.16169 10.475C1.94604 10.192 1.94613 9.80776 2.16178 9.52474ZM6.08568 11.94C7.20667 12.7352 8.56844 13.3896 9.99988 13.3896C11.4348 13.3896 12.7968 12.7355 13.9169 11.9407C14.8822 11.2557 15.6412 10.4852 16.0769 10.0005C15.6404 9.51583 14.88 8.74505 13.9139 8.0598C12.7929 7.26467 11.4313 6.61036 9.99988 6.61036C8.56501 6.61036 7.20295 7.26454 6.08286 8.05932C5.11756 8.74427 4.35858 9.51473 3.92288 9.99946C4.35928 10.484 5.11965 11.2548 6.08568 11.94Z" fill="#F2F2F2"/>
<rect x="8" y="8" width="4" height="4" rx="2" fill="#F2F2F2"/>
</svg>
