<svg width="30" height="30" viewBox="0 0 30 30" fill="none" xmlns="http://www.w3.org/2000/svg">
<g clip-path="url(#clip0)">
<path d="M29.3753 1.15193C28.5423 0.319079 27.1871 0.319196 26.3541 1.15199C25.9506 1.55553 25.7284 2.09195 25.7284 2.6626C25.7284 2.7591 25.7352 2.85444 25.7478 2.94854L22.8982 3.66256L22.2061 4.63153L21.2287 3.65412L19.9815 4.90135L21.0714 5.99126L19.2437 7.81892C18.0113 7.42177 16.5609 7.11937 15 7.11937C13.4503 7.11937 12.0095 7.41743 10.7829 7.8103L8.93313 5.98681L10.0186 4.90135L8.77136 3.65412L7.79395 4.63153L7.10178 3.6625L4.25213 2.94854C4.26467 2.85444 4.27152 2.7591 4.27152 2.6626C4.27152 2.09195 4.04933 1.55553 3.6458 1.15205C2.81289 0.319138 1.45761 0.319138 0.62464 1.15205C-0.208213 1.98502 -0.208213 3.3403 0.62464 4.17321C1.02812 4.57674 1.5646 4.79893 2.13519 4.79893C2.23169 4.79893 2.32703 4.79208 2.42113 4.77954L3.13515 7.62913L4.10418 8.3213L3.12677 9.29871L4.374 10.5459L5.46836 9.45158L6.46674 10.4358C6.46955 13.3344 6.88645 16.0651 7.70635 18.5522C7.77251 18.7529 7.84206 18.9517 7.91342 19.1493L1.05185 26.0108L1.39825 29.129L4.51644 29.4754L10.2397 23.7522C10.31 23.8561 10.3811 23.9592 10.4532 24.0616C12.4479 26.8942 14.4545 28.1433 14.539 28.1951L15.0001 28.4779L15.4612 28.1951C15.5456 28.1433 17.5522 26.8942 19.5469 24.0616C19.6484 23.9174 19.7474 23.7712 19.8454 23.6239L25.6331 29.3293L28.7474 28.9833L29.0943 25.8612L22.1386 19.0044C22.1916 18.8544 22.2437 18.7038 22.2937 18.552C23.1114 16.0715 23.5281 13.3488 23.5331 10.4589L24.5361 9.45586L25.6261 10.5458L26.8733 9.29859L25.896 8.32119L26.865 7.62902L27.579 4.77942C27.6731 4.79196 27.7685 4.79881 27.865 4.79881C28.4356 4.79881 28.972 4.57663 29.3755 4.17309V4.17303C30.2082 3.34024 30.2082 1.98496 29.3753 1.15193ZM2.39857 2.92592C2.30365 3.02084 2.1929 3.03496 2.13525 3.03496C2.07759 3.0349 1.96679 3.02078 1.87187 2.92586C1.72667 2.78067 1.72667 2.54442 1.87187 2.39922C1.94447 2.32662 2.0398 2.29035 2.13525 2.29035C2.23064 2.29035 2.32597 2.32662 2.39863 2.39922C2.49355 2.49414 2.50767 2.60494 2.50767 2.6626C2.50767 2.72026 2.49349 2.831 2.39857 2.92592ZM5.36869 7.05673L4.68853 6.57087L4.23537 4.76272L6.04358 5.21583L6.52944 5.89598L5.36869 7.05673ZM7.68778 9.16242L6.71571 8.20423L7.68579 7.23421L8.97796 8.50798C8.46462 8.74113 8.02921 8.96953 7.68778 9.16242ZM3.86857 27.6288L2.99552 27.5318L2.89849 26.6587L8.64081 20.9165C8.84471 21.3554 9.06222 21.7849 9.29337 22.2041L3.86857 27.6288ZM14.1181 25.6126C13.4839 25.0225 12.6924 24.1779 11.8953 23.0461C10.8348 21.5401 9.98905 19.8423 9.38167 17.9999C8.66307 15.8201 8.2777 13.4297 8.23452 10.8881C9.10768 10.3641 11.3914 9.14935 14.118 8.92095V11.631C13.3206 11.7172 12.4938 11.9179 11.6494 12.2316L11.0024 12.4719L11.0802 13.1577C11.4237 16.184 12.3562 18.8649 13.8518 21.1261C13.9381 21.2566 14.0275 21.3857 14.1181 21.5138V25.6126ZM15 19.6411C13.956 17.9039 13.26 15.8991 12.9256 13.6648C13.6496 13.4529 14.3449 13.3457 15 13.3457C15.6504 13.3457 16.3456 13.4539 17.0739 13.6682C16.7392 15.901 16.0435 17.9049 15 19.6411ZM18.1582 22.9698C17.3813 24.0852 16.5657 24.9712 15.882 25.6112V21.5139C15.9723 21.3862 16.0618 21.257 16.1483 21.1262C17.6433 18.8659 18.5756 16.1862 18.9194 13.1617L18.9974 12.4757L18.3501 12.2354C17.5019 11.9204 16.6753 11.7189 15.882 11.6317V8.92089C18.6086 9.14923 20.8923 10.3641 21.7654 10.8881C21.7227 13.4059 21.3441 15.7754 20.6384 17.9385C20.0399 19.7732 19.2054 21.466 18.1582 22.9698ZM27.2467 26.5169L27.1501 27.3861L26.2731 27.4835L20.7806 22.0691C21.0086 21.6482 21.2233 21.2175 21.424 20.777L27.2467 26.5169ZM22.3268 9.17068C21.9873 8.97843 21.5533 8.75003 21.0408 8.51642L22.3187 7.23855L23.2887 8.20868L22.3268 9.17068ZM25.3115 6.57093L24.6314 7.05679L23.4706 5.89604L23.9565 5.21589L25.7647 4.76278L25.3115 6.57093ZM28.1281 2.92586C28.0332 3.02084 27.9224 3.0349 27.8648 3.0349C27.8071 3.0349 27.6964 3.02073 27.6015 2.9258C27.5066 2.83088 27.4924 2.72014 27.4924 2.66248C27.4924 2.60483 27.5066 2.49408 27.6015 2.3991C27.6741 2.32656 27.7694 2.29024 27.8648 2.29024C27.9601 2.29024 28.0555 2.3265 28.1281 2.3991C28.2732 2.54442 28.2732 2.78072 28.1281 2.92586Z" fill="#DF0D14"/>
</g>
<defs>
<clipPath id="clip0">
<rect width="30" height="30" fill="white"/>
</clipPath>
</defs>
</svg>
