<svg xmlns="http://www.w3.org/2000/svg"  viewBox="0 0 64 64" width="480px" height="480px"><path d="M 28.541016 12.441406 C 21.305016 13.049406 15.693359 16.132812 15.693359 16.132812 C 15.693359 16.132812 8 24.196828 8 39.423828 L 8 44.294922 L 9.8164062 45.478516 C 15.655406 49.284516 19.816594 51.212891 22.183594 51.212891 L 24.287109 51.212891 L 27.035156 47.21875 C 28.545156 47.48475 30.227 47.666016 32 47.666016 C 33.773 47.666016 35.453844 47.48475 36.964844 47.21875 L 39.712891 51.212891 L 41.816406 51.212891 C 44.183406 51.212891 48.344594 49.283516 54.183594 45.478516 L 56 44.294922 L 56 39.423828 C 56 24.379828 48.306641 16.132812 48.306641 16.132812 C 48.306641 16.132813 43.048031 13.140406 35.457031 12.441406 L 34.248047 14.732422 C 33.572047 14.675422 32.812047 14.636719 31.998047 14.636719 C 31.184047 14.636719 30.425047 14.676422 29.748047 14.732422 L 28.541016 12.441406 z M 26.3125 16.787109 L 27.523438 19.083984 C 27.523437 19.083984 29.449953 18.638672 32.001953 18.638672 C 34.553953 18.638672 36.478516 19.083984 36.478516 19.083984 L 37.689453 16.787109 C 41.593453 17.326109 45.820312 19.373047 45.820312 19.373047 C 45.820312 19.373047 52 26.530828 52 39.423828 L 52 42.126953 C 52 42.126953 44.194453 47.213891 41.814453 47.212891 L 39.507812 43.857422 C 40.941812 43.215422 42.898438 42.099609 42.898438 42.099609 L 42.183594 41.546875 C 42.183594 41.546875 37.609047 43.664062 31.998047 43.664062 C 26.387047 43.664063 21.814453 41.546875 21.814453 41.546875 L 21.099609 42.099609 C 21.099609 42.099609 23.056234 43.215422 24.490234 43.857422 L 22.183594 47.212891 C 19.805594 47.212891 12 42.126953 12 42.126953 L 12 39.423828 C 12 26.530828 18.181641 19.373047 18.181641 19.373047 C 18.181641 19.373047 22.4085 17.325109 26.3125 16.787109 z M 24.009766 29.044922 C 21.649766 29.044922 19.734375 31.194703 19.734375 33.845703 C 19.734375 36.497703 21.649766 38.646484 24.009766 38.646484 C 26.369766 38.646484 28.283203 36.497703 28.283203 33.845703 C 28.283203 31.193703 26.369766 29.044922 24.009766 29.044922 z M 39.990234 29.044922 C 37.629234 29.044922 35.716797 31.194703 35.716797 33.845703 C 35.716797 36.497703 37.630234 38.646484 39.990234 38.646484 C 42.351234 38.646484 44.265625 36.497703 44.265625 33.845703 C 44.265625 31.193703 42.351234 29.044922 39.990234 29.044922 z"/></svg>