<svg width="0" height="0" style="position:absolute">
<symbol viewBox="-1 -1 18 18" id="image-arrow" xmlns="http://www.w3.org/2000/svg">
<path fill-rule="evenodd" clip-rule="evenodd" d="M9 0H7v12.2L1.425 6.698 0 8.105l6.579 6.492 1.42 1.404 8-7.895-1.42-1.403L9 12.208V0z"/>
</symbol>
<symbol viewBox="-1 -1 22 15" id="image-chevron" xmlns="http://www.w3.org/2000/svg">
<path fill-rule="evenodd" clip-rule="evenodd" d="M19.999 2.833L17.332.166 9.999 7.499 2.667.167 0 2.834l7.332 7.332 2.667 2.667.001.001 2.667-2.667-.002-.001L20 2.833z"/>
</symbol>
<symbol viewBox="-1 -1 22 22" id="image-clear" xmlns="http://www.w3.org/2000/svg"><path d="M18 4.105L15.867 2 10 7.79 4.133 2 2 4.105 10 12l8-7.895z"/>
<path d="M18 15.895L15.867 18 10 12.21 4.133 18 2 15.895 10 8l8 7.895z"/>
</symbol>
<symbol fill="none" viewBox="-1 -1 62 62" id="image-contacts-email" xmlns="http://www.w3.org/2000/svg">
<rect width="60" height="60" rx="30" fill="#1A1A1A"/>
<path d="M44.836 17.668H15.164A3.168 3.168 0 0012 20.832v18.336a3.168 3.168 0 003.164 3.164h29.672A3.168 3.168 0 0048 39.168V20.832a3.168 3.168 0 00-3.164-3.164zm-.413 2.11l-.422.351-12.746 10.613a1.962 1.962 0 01-2.51 0L15.999 20.129l-.422-.352h28.846zM14.109 21.3l10.385 8.647-10.385 6.912V21.3zm30.727 18.923H15.164c-.51 0-.936-.363-1.034-.845l12.055-8.022 1.21 1.007c.755.629 1.68.943 2.605.943s1.85-.314 2.605-.943l1.21-1.007 12.055 8.022a1.056 1.056 0 01-1.034.845zm1.055-3.364l-10.385-6.912L45.891 21.3V36.86z" fill="#F2F2F2"/>
</symbol>
<symbol fill="none" viewBox="-1 -1 62 62" id="image-contacts-telegram" xmlns="http://www.w3.org/2000/svg">
<rect width="60" height="60" rx="30" fill="#1A1A1A"/>
<path d="M43.573 14.383L9 28.368v2.022l9.902 3.057 3.132 10.047h2.5l4.03-4.125 8.508 6.25 1.656-.63L45 15.58l-1.427-1.198zm-6.567 28.57L25.8 34.721l-1.249 1.7 2.296 1.686-3.261 3.276-2.559-8.21 14.821-8.848-1.081-1.812-15.04 8.98-7.275-2.246 30.07-12.165-5.516 25.87z" fill="#F2F2F2"/>
</symbol>

<svg xmlns="http://www.w3.org/2000/svg" xmlns:xlink="http://www.w3.org/1999/xlink" id="image-contacts-discord" viewBox="0,0,256,256" width="60px" height="60px" fill-rule="nonzero">
<rect width="256" height="256" rx="128" fill="#1A1A1A"/>
<g transform="translate(51.2,51.2) scale(0.6,0.6)">
<g fill="#000000" fill-rule="nonzero" stroke="none" stroke-width="1" stroke-linecap="butt" stroke-linejoin="miter" stroke-miterlimit="10" stroke-dasharray="" stroke-dashoffset="0" font-family="none" font-weight="none" font-size="none" text-anchor="none" style="mix-blend-mode: normal"><g transform="scale(5.12,5.12)"><path d="M18.90625,7c0,0 -6.36719,0.4375 -10.53125,3.78125c-0.01953,0.00781 -0.04297,0.01953 -0.0625,0.03125c-0.72266,0.66797 -1.26562,1.70313 -1.9375,3.1875c-0.67187,1.48438 -1.38281,3.39453 -2.03125,5.53125c-1.29297,4.27734 -2.34375,9.52734 -2.34375,14.46875c-0.00391,0.17578 0.03906,0.34766 0.125,0.5c1.46094,2.56641 4.14844,4.11719 6.65625,5.09375c2.50781,0.97656 4.82422,1.36719 6,1.40625c0.33203,0.01172 0.64844,-0.14062 0.84375,-0.40625l2.4375,-3.375c1.96484,0.46484 4.26953,0.78125 6.9375,0.78125c2.66797,0 4.97266,-0.31641 6.9375,-0.78125l2.4375,3.375c0.19531,0.26563 0.51172,0.41797 0.84375,0.40625c1.17578,-0.03906 3.49219,-0.42969 6,-1.40625c2.50781,-0.97656 5.19531,-2.52734 6.65625,-5.09375c0.08594,-0.15234 0.12891,-0.32422 0.125,-0.5c0,-4.94141 -1.05078,-10.19141 -2.34375,-14.46875c-0.64844,-2.13672 -1.35937,-4.04687 -2.03125,-5.53125c-0.67187,-1.48437 -1.21484,-2.51953 -1.9375,-3.1875c-0.01953,-0.01172 -0.04297,-0.02344 -0.0625,-0.03125c-4.16406,-3.34375 -10.53125,-3.78125 -10.53125,-3.78125c-0.07422,-0.00781 -0.14453,-0.00781 -0.21875,0c-0.34766,0.04688 -0.64062,0.27344 -0.78125,0.59375c0,0 -0.33984,0.74609 -0.5625,1.8125c-1.94922,-0.3125 -3.58984,-0.40625 -4.53125,-0.40625c-0.94141,0 -2.58203,0.09375 -4.53125,0.40625c-0.22266,-1.06641 -0.5625,-1.8125 -0.5625,-1.8125c-0.17187,-0.39062 -0.57422,-0.62891 -1,-0.59375zM18.28125,9.15625c0.07422,0.20313 0.125,0.39453 0.1875,0.625c-2.25391,0.52344 -4.72266,1.37891 -7.03125,2.8125c-0.36328,0.15234 -0.60156,0.50391 -0.61328,0.89844c-0.00781,0.39063 0.21484,0.75391 0.56641,0.92578c0.35547,0.16797 0.77734,0.11719 1.07813,-0.13672c4.63281,-2.87109 10.52734,-3.28125 12.53125,-3.28125c2.00391,0 7.89844,0.41016 12.53125,3.28125c0.30078,0.25391 0.72266,0.30469 1.07813,0.13672c0.35156,-0.17187 0.57422,-0.53516 0.56641,-0.92578c-0.01172,-0.39453 -0.25,-0.74609 -0.61328,-0.89844c-2.30859,-1.43359 -4.77734,-2.28906 -7.03125,-2.8125c0.0625,-0.23047 0.11328,-0.42187 0.1875,-0.625c1.14063,0.14063 5.57422,0.73828 8.59375,3.125c0.19531,0.17969 0.875,1.17969 1.5,2.5625c0.625,1.38281 1.28125,3.18359 1.90625,5.25c1.21875,4.03125 2.20313,9.00391 2.25,13.5625c-1.13672,1.83984 -3.26953,3.20703 -5.46875,4.0625c-2,0.77734 -3.86719,1.125 -4.84375,1.21875l-1.6875,-2.28125c0.85938,-0.27734 1.63281,-0.57812 2.3125,-0.875c2.52344,-1.10937 3.875,-2.28125 3.875,-2.28125c0.41406,-0.37109 0.44922,-1.00781 0.07813,-1.42187c-0.37109,-0.41406 -1.00781,-0.44922 -1.42187,-0.07812c0,0 -1.04687,0.95703 -3.34375,1.96875c-0.84375,0.37109 -1.86719,0.73828 -3.03125,1.0625c-0.26953,-0.03125 -0.53906,0.04688 -0.75,0.21875c-1.86328,0.45313 -4.07812,0.75 -6.6875,0.75c-2.62891,0 -4.84766,-0.32422 -6.71875,-0.78125c-0.21094,-0.14062 -0.46875,-0.19922 -0.71875,-0.15625c-1.16797,-0.32422 -2.18359,-0.72266 -3.03125,-1.09375c-2.29687,-1.01172 -3.34375,-1.96875 -3.34375,-1.96875c-0.22656,-0.21094 -0.53906,-0.30078 -0.84375,-0.25c-0.38672,0.05859 -0.70703,0.33594 -0.8125,0.71484c-0.10937,0.375 0.01563,0.78125 0.3125,1.03516c0,0 1.35156,1.17188 3.875,2.28125c0.67969,0.29688 1.45313,0.59766 2.3125,0.875l-1.6875,2.28125c-0.97656,-0.09375 -2.84375,-0.44141 -4.84375,-1.21875c-2.19922,-0.85547 -4.33203,-2.22266 -5.46875,-4.0625c0.04688,-4.55859 1.03125,-9.53125 2.25,-13.5625c0.625,-2.06641 1.28125,-3.86719 1.90625,-5.25c0.625,-1.38281 1.30469,-2.38281 1.5,-2.5625c3.01953,-2.38672 7.45313,-2.98437 8.59375,-3.125zM18.5,21c-2.55078,0 -4.5,2.31641 -4.5,5c0,2.68359 1.94922,5 4.5,5c2.55078,0 4.5,-2.31641 4.5,-5c0,-2.68359 -1.94922,-5 -4.5,-5zM31.5,21c-2.55078,0 -4.5,2.31641 -4.5,5c0,2.68359 1.94922,5 4.5,5c2.55078,0 4.5,-2.31641 4.5,-5c0,-2.68359 -1.94922,-5 -4.5,-5zM18.5,23c1.31641,0 2.5,1.26563 2.5,3c0,1.73438 -1.18359,3 -2.5,3c-1.31641,0 -2.5,-1.26562 -2.5,-3c0,-1.73437 1.18359,-3 2.5,-3zM31.5,23c1.31641,0 2.5,1.26563 2.5,3c0,1.73438 -1.18359,3 -2.5,3c-1.31641,0 -2.5,-1.26562 -2.5,-3c0,-1.73437 1.18359,-3 2.5,-3z" fill="#F2F2F2"></path></g></g></g></svg>

<svg xmlns="http://www.w3.org/2000/svg" xmlns:xlink="http://www.w3.org/1999/xlink" id="image-contacts-tiktok" viewBox="0,0,256,256" width="60px" height="60px" fill-rule="nonzero">
<rect width="256" height="256" rx="128" fill="#1A1A1A"/>
<g transform="translate(51.2,51.2) scale(0.6,0.6)">
<g fill="#000000" fill-rule="nonzero" stroke="none" stroke-width="1" stroke-linecap="butt" stroke-linejoin="miter" stroke-miterlimit="10" stroke-dasharray="" stroke-dashoffset="0" font-family="none" font-weight="none" font-size="none" text-anchor="none" style="mix-blend-mode: normal"><g transform="scale(5.12,5.12)"><path d="M9,4c-2.75042,0 -5,2.24958 -5,5v32c0,2.75042 2.24958,5 5,5h32c2.75042,0 5,-2.24958 5,-5v-32c0,-2.75042 -2.24958,-5 -5,-5zM9,6h32c1.67158,0 3,1.32842 3,3v32c0,1.67158 -1.32842,3 -3,3h-32c-1.67158,0 -3,-1.32842 -3,-3v-32c0,-1.67158 1.32842,-3 3,-3zM26.04297,10c-0.5515,0.00005 -0.99887,0.44655 -1,0.99805c0,0 -0.01098,4.87522 -0.02148,9.76172c-0.0053,2.44325 -0.01168,4.88902 -0.01562,6.73047c-0.00394,1.84145 -0.00586,3.0066 -0.00586,3.10352c0,1.81526 -1.64858,3.29883 -3.52734,3.29883c-1.86379,0 -3.35156,-1.48972 -3.35156,-3.35352c0,-1.86379 1.48777,-3.35156 3.35156,-3.35156c0.06314,0 0.1904,0.02075 0.4082,0.04688c0.28415,0.03406 0.56927,-0.05523 0.78323,-0.24529c0.21396,-0.19006 0.33624,-0.46267 0.33591,-0.74885v-4.20117c-0.00005,-0.528 -0.41054,-0.965 -0.9375,-0.99805c-0.15583,-0.0098 -0.35192,-0.0293 -0.58984,-0.0293c-5.24953,0 -9.52734,4.27782 -9.52734,9.52734c0,5.24953 4.27782,9.52734 9.52734,9.52734c5.24938,0 9.52734,-4.27782 9.52734,-9.52734v-9.04883c1.45461,1.16341 3.26752,1.90039 5.26953,1.90039c0.27306,0 0.53277,-0.01618 0.78125,-0.03906c0.51463,-0.04749 0.90832,-0.47927 0.9082,-0.99609v-4.66992c0.0003,-0.52448 -0.40463,-0.9601 -0.92773,-0.99805c-3.14464,-0.22561 -5.65141,-2.67528 -5.97852,-5.79102c-0.05305,-0.50925 -0.48214,-0.89619 -0.99414,-0.89648zM27.04102,12h2.28125c0.72678,3.2987 3.30447,5.8144 6.63672,6.44531v2.86523c-2.13887,-0.10861 -4.01749,-1.1756 -5.12305,-2.85742c-0.24284,-0.36962 -0.69961,-0.53585 -1.12322,-0.40877c-0.4236,0.12708 -0.71344,0.51729 -0.71272,0.95955v11.53516c0,4.16848 -3.35873,7.52734 -7.52734,7.52734c-4.16848,0 -7.52734,-3.35887 -7.52734,-7.52734c0,-4.00052 3.12077,-7.17588 7.05469,-7.43164v2.17578c-2.71358,0.25252 -4.87891,2.47904 -4.87891,5.25586c0,2.94421 2.40735,5.35352 5.35156,5.35352c2.92924,0 5.52734,-2.30609 5.52734,-5.29883c0,0.04892 0.00186,-1.25818 0.00586,-3.09961c0.0039,-1.84143 0.01037,-4.28722 0.01563,-6.73047c0.0094,-4.3869 0.0177,-7.91447 0.01953,-8.76367z" fill="#F2F2F2"></path></g></g></g></svg>

<svg xmlns="http://www.w3.org/2000/svg" xmlns:xlink="http://www.w3.org/1999/xlink" id="image-contacts-twitch" viewBox="0,0,256,256" width="60px" height="60px" fill-rule="nonzero">
<rect width="256" height="256" rx="128" fill="#1A1A1A"/>
<g transform="translate(51.2,51.2) scale(0.6,0.6)"><g fill="#000000" fill-rule="nonzero" stroke="none" stroke-width="1" stroke-linecap="butt" stroke-linejoin="miter" stroke-miterlimit="10" stroke-dasharray="" stroke-dashoffset="0" font-family="none" font-weight="none" font-size="none" text-anchor="none" style="mix-blend-mode: normal"><g transform="scale(5.12,5.12)"><path d="M5.3125,1l-0.25,0.65625l-3,8l-0.0625,0.15625v33.1875h11v6h7.40625l0.3125,-0.28125l5.71875,-5.71875h8.96875l0.3125,-0.28125l12.28125,-12.28125v-29.4375zM6.6875,3h39.3125v26.59375l-11.40625,11.40625h-9l-6,6h-4.59375v-6h-11v-30.8125zM10,5v30h8v7.40625l1.71875,-1.6875l5.71875,-5.71875h11.96875l0.3125,-0.28125l6,-6l0.28125,-0.3125v-23.40625zM12,7h30v20.5625l-5.4375,5.4375h-11.96875l-0.3125,0.28125l-4.28125,4.28125v-4.5625h-8zM20,13v14h6v-14zM30,13v14h6v-14zM22,15h2v10h-2zM32,15h2v10h-2z" fill="#F2F2F2"></path></g></g></g></svg>

<svg xmlns="http://www.w3.org/2000/svg" xmlns:xlink="http://www.w3.org/1999/xlink" id="image-contacts-youtube" viewBox="0,0,256,256" width="60px" height="60px" fill-rule="evenodd">
<rect width="256" height="256" rx="128" fill="#1A1A1A"/>
<g transform="translate(51.2,51.2) scale(0.6,0.6)"><g fill="#000000" fill-rule="evenodd" stroke="none" stroke-width="1" stroke-linecap="butt" stroke-linejoin="miter" stroke-miterlimit="10" stroke-dasharray="" stroke-dashoffset="0" font-family="none" font-weight="none" font-size="none" text-anchor="none" style="mix-blend-mode: normal"><g transform="scale(5.12,5.12)"><path d="M13,5l3,9v6h2v-6l3,-9h-2l-2,6l-2,-6zM24,9c-1.06641,0 -1.58984,0.16797 -2.24219,0.70313c-0.625,0.52734 -0.79687,0.93359 -0.75781,2.29688v5c0,0.99609 0.16406,1.65234 0.76563,2.23438c0.625,0.58203 1.21484,0.76563 2.23438,0.76563c1.06641,0 1.64844,-0.18359 2.25,-0.76562c0.625,-0.55859 0.75,-1.23828 0.75,-2.23437v-5c0,-0.88281 -0.15625,-1.71875 -0.76172,-2.27734c-0.625,-0.57422 -1.26953,-0.72266 -2.23828,-0.72266zM29,9v9c0,0.97266 0.98047,2 2,2c1.01953,0 1.55859,-0.51172 2,-1v1h2v-11h-2v8c-0.01172,0.68359 -0.81641,1 -1,1c-0.20703,0 -1,-0.04297 -1,-1v-8zM24,11c0.30078,0 1,-0.00391 1,1v5c0,0.96875 -0.67578,1 -1,1c-0.30078,0 -1,-0.01172 -1,-1v-5c0,-0.81641 0.43359,-1 1,-1zM25.45703,21.92188c-5.04297,-0.01172 -10.08203,0 -15.125,0.07813c-0.67969,0.01953 -1.35937,0.11719 -2.00781,0.32813c-0.52344,0.17578 -1.02344,0.41797 -1.47656,0.73438c-0.53516,0.375 -0.99609,0.84766 -1.35547,1.39063c-0.25391,0.37891 -0.45703,0.79297 -0.60937,1.22266c-0.25,0.69141 -0.36328,1.42188 -0.38281,2.15234c-0.05078,3.28125 -0.05078,6.5625 0,9.84375c0.01953,0.625 0.10156,1.24219 0.26563,1.84766c0.31641,1.14063 0.92188,2.20703 1.80469,3.00781c0.25391,0.23047 0.52734,0.4375 0.82031,0.61719c0.35938,0.22266 0.74609,0.40625 1.14844,0.54297c0.57813,0.19531 1.18359,0.29297 1.79297,0.3125c10.10938,0.1875 20.22656,0.15625 30.33594,0c0.67969,-0.01953 1.35938,-0.11719 2.00781,-0.32812c0.52344,-0.17578 1.02344,-0.41797 1.47656,-0.73437c0.53516,-0.375 0.99609,-0.84766 1.35938,-1.39062c0.25,-0.37891 0.45313,-0.79297 0.60938,-1.22266c0.24609,-0.69141 0.35938,-1.42187 0.37891,-2.15234c0.05078,-3.41797 0.01563,-6.83984 0,-10.25391c-0.01172,-0.73828 -0.11719,-1.47656 -0.35937,-2.17187c-0.14453,-0.43359 -0.34375,-0.85156 -0.59375,-1.23437c-0.35156,-0.54687 -0.80859,-1.02734 -1.33594,-1.40625c-0.46875,-0.33984 -0.98828,-0.59766 -1.53516,-0.77734c-0.67578,-0.21875 -1.38281,-0.31641 -2.09375,-0.32812c-5.03906,-0.02344 -10.08203,-0.06641 -15.125,-0.07812zM33.09375,23.9375c2.51172,0.00391 5.02344,0.02344 7.53125,0.0625c0.39844,0.01172 0.79688,0.05859 1.18359,0.15625c0.62109,0.16406 1.20703,0.47266 1.65625,0.93359c0.15234,0.15625 0.28516,0.32422 0.40625,0.50781c0.16797,0.26172 0.30078,0.54688 0.39453,0.84375c0.15625,0.46094 0.21875,0.94531 0.23438,1.43359c0.05078,3.41797 0.05078,6.83594 0,10.25c-0.01562,0.48828 -0.07812,0.97266 -0.23437,1.43359c-0.09375,0.29688 -0.22656,0.58203 -0.39453,0.84375c-0.12109,0.18359 -0.25391,0.35156 -0.40625,0.50781c-0.44922,0.46094 -1.03516,0.76953 -1.65625,0.93359c-0.38672,0.09766 -0.78516,0.14453 -1.18359,0.15625c-10.05859,0.15625 -20.12109,0.0625 -30.18359,0c-0.42969,-0.00781 -0.85156,-0.07031 -1.26172,-0.20703c-0.25781,-0.08984 -0.50781,-0.20703 -0.73828,-0.35156c-0.1875,-0.11328 -0.36719,-0.24609 -0.52734,-0.39453c-0.61719,-0.5625 -1.02344,-1.31641 -1.23437,-2.11328c-0.11328,-0.42578 -0.16406,-0.86719 -0.17969,-1.30859c-0.05078,-3.22656 -0.01562,-6.45703 0,-9.6875c0.00781,-0.49219 0.07031,-0.98047 0.21875,-1.44922c0.09375,-0.30078 0.22266,-0.58594 0.39063,-0.85156c0.12109,-0.19531 0.26563,-0.38281 0.42578,-0.54687c0.46484,-0.47656 1.06641,-0.78516 1.70703,-0.94531c0.41406,-0.10156 0.83984,-0.14062 1.26172,-0.14453c7.53125,0 15.0625,-0.08594 22.58984,-0.0625zM11,26v2h2v12h2v-12h2v-2zM26,26v14h2v-1c0.38672,0.44922 0.94922,1.01172 2,1c0.62109,-0.00781 1.10156,-0.50781 1.42188,-0.90234c0.32813,-0.39453 0.57813,-0.85547 0.57813,-1.59766v-6c0,-0.86328 -0.27344,-1.44922 -0.62109,-1.89062c-0.34766,-0.4375 -0.85547,-0.67187 -1.50391,-0.67187c-0.32812,0 -0.65234,0.09375 -0.97266,0.25781c-0.32812,0.16016 -0.67187,0.44531 -0.90234,0.80469v-4zM18,29v9c0,0.625 0.26953,0.93359 0.5,1.23438c0.25781,0.32813 0.80859,0.76563 1.29297,0.76563c0.39063,0 0.8125,0.01563 1.22656,-0.21875c0.41797,-0.20703 0.60938,-0.34375 0.98047,-0.78125v1h2v-11h-2v8c-0.17969,0.23438 -0.1875,0.99219 -1,1c-0.73047,0.00781 -1,-0.76953 -1,-1v-8zM36.19922,29c-0.94922,0 -1.82812,0.23047 -2.29687,0.71094c-0.58203,0.59766 -0.89844,1.26953 -0.89844,2.17578v4.70703c0,1.01953 0.27734,1.8125 0.80859,2.39063c0.53125,0.57813 1.27344,0.85938 2.22266,0.85938c1.03906,0 1.83203,-0.25781 2.33984,-0.81641c0.53906,-0.53125 0.625,-1.34375 0.625,-2.43359v-0.59375h-2v0.5c0,0.60156 -0.05859,1.06641 -0.19922,1.23047c-0.13672,0.18359 -0.39453,0.26563 -0.80078,0.26953c-0.36719,0.00391 -0.64453,-0.09766 -0.78125,-0.32812c-0.14453,-0.21094 -0.21875,-0.56641 -0.21875,-1.125v-1.54687h4v-3.11328c0,-1 -0.16406,-1.62109 -0.67969,-2.15234c-0.50391,-0.53125 -1.17187,-0.73437 -2.12109,-0.73437zM29,30.5c0.55078,0 1,0.5 1,1.5v5.02344c0,0.55078 -0.44922,0.97656 -1,0.97656c-0.55078,0 -0.99219,-0.21094 -1,-0.5v-6c0.00781,-0.50391 0.44922,-1 1,-1zM36,31c0.55078,0 1,0.38672 1,1v1h-2v-1c0.00781,-0.53516 0.44922,-1 1,-1z" fill="#F2F2F2"></path></g></g></g></svg>

<svg xmlns="http://www.w3.org/2000/svg" xmlns:xlink="http://www.w3.org/1999/xlink" id="image-contacts-twitter" viewBox="0,0,256,256" width="60px" height="60px" fill-rule="nonzero">
<rect width="256" height="256" rx="128" fill="#1A1A1A"/>
<g transform="translate(51.2,51.2) scale(0.6,0.6)"><g fill="#000000" fill-rule="nonzero" stroke="none" stroke-width="1" stroke-linecap="butt" stroke-linejoin="miter" stroke-miterlimit="10" stroke-dasharray="" stroke-dashoffset="0" font-family="none" font-weight="none" font-size="none" text-anchor="none" style="mix-blend-mode: normal"><g transform="scale(5.12,5.12)"><path d="M34.21875,5.46875c-5.98047,0 -10.84375,4.86328 -10.84375,10.84375c0,0.35938 0.08984,0.71094 0.125,1.0625c-7.39453,-0.70703 -13.93359,-4.26953 -18.375,-9.71875c-0.20703,-0.26172 -0.52734,-0.40234 -0.86328,-0.37891c-0.33203,0.02344 -0.62891,0.21484 -0.79297,0.50391c-0.93359,1.60547 -1.46875,3.45313 -1.46875,5.4375c0,2.40234 0.85938,4.60156 2.1875,6.40625c-0.25781,-0.11328 -0.53906,-0.17578 -0.78125,-0.3125c-0.30859,-0.16406 -0.67969,-0.15625 -0.98047,0.02344c-0.30078,0.17969 -0.48438,0.50391 -0.48828,0.85156v0.125c0,3.68359 1.90625,6.88281 4.71875,8.84375c-0.03125,-0.00391 -0.0625,0.00781 -0.09375,0c-0.34375,-0.05859 -0.69141,0.0625 -0.92187,0.32422c-0.23047,0.26172 -0.30469,0.625 -0.20312,0.95703c1.11719,3.47266 3.96875,6.125 7.5,7.09375c-2.8125,1.67188 -6.07422,2.65625 -9.59375,2.65625c-0.76172,0 -1.49219,-0.03906 -2.21875,-0.125c-0.46875,-0.0625 -0.91797,0.21094 -1.07422,0.65625c-0.16016,0.44531 0.01563,0.94141 0.41797,1.1875c4.51172,2.89453 9.86719,4.59375 15.625,4.59375c9.33203,0 16.65234,-3.89844 21.5625,-9.46875c4.91016,-5.57031 7.46875,-12.80469 7.46875,-19.5625c0,-0.28516 -0.02344,-0.5625 -0.03125,-0.84375c1.83203,-1.40234 3.46875,-3.04687 4.75,-4.96875c0.25391,-0.37109 0.22656,-0.86719 -0.06641,-1.21094c-0.28906,-0.34375 -0.77734,-0.44922 -1.18359,-0.25781c-0.51562,0.23047 -1.11719,0.25391 -1.65625,0.4375c0.71094,-0.94922 1.32031,-1.97266 1.6875,-3.125c0.125,-0.39453 -0.01172,-0.82812 -0.33594,-1.08594c-0.32422,-0.25391 -0.77734,-0.28516 -1.13281,-0.07031c-1.70703,1.01172 -3.59766,1.72266 -5.59375,2.15625c-1.9375,-1.8125 -4.48828,-3.03125 -7.34375,-3.03125zM34.21875,7.46875c2.55078,0 4.85547,1.08984 6.46875,2.8125c0.24219,0.25 0.59766,0.35547 0.9375,0.28125c1.30469,-0.25781 2.54297,-0.63672 3.75,-1.125c-0.69531,0.9375 -1.55469,1.73828 -2.5625,2.34375c-0.45703,0.22266 -0.67187,0.75 -0.50391,1.23047c0.16406,0.47656 0.66406,0.75391 1.16016,0.64453c1,-0.12109 1.89063,-0.52734 2.84375,-0.78125c-0.85547,0.92578 -1.79297,1.76172 -2.8125,2.5c-0.27734,0.20313 -0.42969,0.53125 -0.40625,0.875c0.01563,0.40625 0.03125,0.80859 0.03125,1.21875c0,6.25 -2.39844,13.03516 -6.96875,18.21875c-4.57031,5.18359 -11.28125,8.8125 -20.0625,8.8125c-3.98828,0 -7.75391,-0.88281 -11.15625,-2.4375c4.21875,-0.32422 8.10938,-1.81641 11.25,-4.28125c0.32813,-0.26172 0.45703,-0.69922 0.32422,-1.09766c-0.13281,-0.39844 -0.5,-0.67187 -0.91797,-0.68359c-3.29687,-0.05859 -6.05859,-1.97656 -7.53125,-4.6875c0.05469,0 0.10156,0 0.15625,0c0.98828,0 1.96484,-0.125 2.875,-0.375c0.4375,-0.12891 0.73828,-0.53516 0.72266,-0.99219c-0.01562,-0.45703 -0.33984,-0.84766 -0.78516,-0.94531c-3.55859,-0.71875 -6.22656,-3.61719 -6.84375,-7.21875c1.00781,0.34766 2.03906,0.62109 3.15625,0.65625c0.45703,0.02734 0.87109,-0.25781 1.01172,-0.69141c0.14063,-0.43359 -0.03125,-0.91016 -0.41797,-1.15234c-2.375,-1.58984 -3.9375,-4.29687 -3.9375,-7.375c0,-1.14062 0.29688,-2.1875 0.6875,-3.1875c5,5.48828 12,9.13281 19.90625,9.53125c0.3125,0.01563 0.61719,-0.11328 0.82031,-0.35156c0.20313,-0.24219 0.28125,-0.5625 0.21094,-0.86719c-0.15234,-0.64844 -0.25,-1.33594 -0.25,-2.03125c0,-4.89844 3.94531,-8.84375 8.84375,-8.84375z" fill="#F2F2F2"></path></g></g></g></svg>

<symbol fill="none" viewBox="-1 -1 22 22" id="image-pass-hidden" xmlns="http://www.w3.org/2000/svg">
<path fill-rule="evenodd" clip-rule="evenodd" d="M2.162 9.525c.076-.1.945-1.222 2.329-2.322C5.868 6.11 7.8 5 10 5c2.199 0 4.132 1.109 5.51 2.203a14.49 14.49 0 012.328 2.322.778.778 0 010 .95c-.076.1-.945 1.222-2.329 2.322C14.132 13.892 12.2 15 10 15c-2.198 0-4.13-1.108-5.508-2.203a14.487 14.487 0 01-2.33-2.322.779.779 0 010-.95zm3.924 2.415c1.12.795 2.482 1.45 3.914 1.45 1.435 0 2.797-.655 3.917-1.45a13.5 13.5 0 002.16-1.94 13.557 13.557 0 00-2.163-1.94C12.793 7.265 11.43 6.61 10 6.61c-1.435 0-2.797.655-3.917 1.45A13.496 13.496 0 003.923 10a13.557 13.557 0 002.163 1.94z" fill="#F2F2F2"/>
<rect x="8" y="8" width="4" height="4" rx="2" fill="#F2F2F2"/><path fill="#F2F2F2" d="M16.588 2.002l1.414 1.414L3.415 18.004 2 16.59z"/>
</symbol>
<symbol fill="none" viewBox="-1 -1 22 22" id="image-pass-visible" xmlns="http://www.w3.org/2000/svg">
<path fill-rule="evenodd" clip-rule="evenodd" d="M2.162 9.525c.076-.1.945-1.222 2.329-2.322C5.868 6.11 7.8 5 10 5c2.199 0 4.132 1.109 5.51 2.203a14.49 14.49 0 012.328 2.322.778.778 0 010 .95c-.076.1-.945 1.222-2.329 2.322C14.132 13.892 12.2 15 10 15c-2.198 0-4.13-1.108-5.508-2.203a14.487 14.487 0 01-2.33-2.322.779.779 0 010-.95zm3.924 2.415c1.12.795 2.482 1.45 3.914 1.45 1.435 0 2.797-.655 3.917-1.45a13.5 13.5 0 002.16-1.94 13.557 13.557 0 00-2.163-1.94C12.793 7.265 11.43 6.61 10 6.61c-1.435 0-2.797.655-3.917 1.45A13.496 13.496 0 003.923 10a13.557 13.557 0 002.163 1.94z" fill="#F2F2F2"/>
<rect x="8" y="8" width="4" height="4" rx="2" fill="#F2F2F2"/>
</symbol>
<symbol viewBox="-1 -1 50 58" id="image-play" xmlns="http://www.w3.org/2000/svg"><path d="M48 27.713L0 55.426V0l48 27.713z"/>
</symbol>
<symbol viewBox="-1 -1 18 18" id="image-resize-close" xmlns="http://www.w3.org/2000/svg">
<path d="M14.929 7.072h-6v-2h6v2z"/>
<path d="M8.929 7.072v-6h2v6h-2z"/>
<path d="M8.929 5.657L14.586 0 16 1.414l-5.657 5.657-1.414-1.414zM1.07 8.93h6v2h-6v-2z"/>
<path d="M7.07 8.93v6h-2v-6h2z"/>
<path d="M-.001 14.586L5.656 8.93l1.414 1.414L1.413 16 0 14.586z"/>
</symbol>
<symbol viewBox="-1 -1 18 18" id="image-resize-open" xmlns="http://www.w3.org/2000/svg">
<path d="M10 0h6v2h-6zM6 16H0v-2h6z"/><path d="M16 0v6h-2V0zM0 16v-6h2v6z"/>
<path d="M0 14.586l5.657-5.657 1.414 1.414L1.414 16zM8.93 5.656l5.657-5.657L16 1.413 10.344 7.07z"/>
</symbol>
<symbol fill="none" viewBox="-1 -1 32 32" id="image-shield" xmlns="http://www.w3.org/2000/svg">
<g clip-path="url(#kclip0)"><path d="M29.375 1.152a2.139 2.139 0 00-3.02 0 2.122 2.122 0 00-.607 1.797l-2.85.714-.692.969-.977-.978-1.247 1.247 1.09 1.09-1.828 1.828c-1.233-.397-2.683-.7-4.244-.7-1.55 0-2.99.298-4.217.691l-1.85-1.823L10.02 4.9 8.77 3.654l-.977.978-.692-.97-2.85-.713a2.122 2.122 0 00-.606-1.796 2.139 2.139 0 00-3.021 0 2.139 2.139 0 000 3.02 2.122 2.122 0 001.796.607l.714 2.85.97.691-.978.978 1.247 1.247 1.094-1.094.999.984c.003 2.898.42 5.63 1.24 8.116.066.2.135.4.206.597l-6.861 6.862.346 3.118 3.118.346 5.724-5.723c.07.104.141.207.213.31 1.995 2.832 4.002 4.081 4.086 4.133l.461.283.461-.283c.085-.052 2.091-1.3 4.086-4.133.101-.145.2-.29.298-.438l5.788 5.705 3.114-.346.347-3.122-6.955-6.857c.053-.15.105-.3.155-.452.817-2.48 1.234-5.203 1.24-8.093l1.002-1.003 1.09 1.09 1.247-1.247-.977-.978.969-.692.714-2.85a2.122 2.122 0 001.796-.606 2.139 2.139 0 000-3.021zM2.4 2.926a.37.37 0 01-.527 0 .373.373 0 11.527 0zm2.97 4.13l-.68-.485-.454-1.808 1.809.453.485.68-1.16 1.16zm2.319 2.106l-.972-.958.97-.97 1.292 1.274a16.54 16.54 0 00-1.29.654zM3.868 27.63l-.872-.097-.098-.873 5.743-5.742c.204.438.421.868.652 1.287L3.87 27.63zm10.25-2.016a16.427 16.427 0 01-2.223-2.567A19.17 19.17 0 019.382 18c-.719-2.18-1.104-4.57-1.147-7.112.873-.524 3.156-1.739 5.883-1.967v2.71c-.797.086-1.624.287-2.469.6l-.647.24.078.687c.344 3.026 1.276 5.707 2.772 7.968.086.13.175.26.266.388v4.099zM15 19.64c-1.044-1.737-1.74-3.742-2.074-5.976a7.408 7.408 0 012.074-.32c.65 0 1.346.109 2.074.323-.335 2.233-1.03 4.237-2.074 5.973zm3.158 3.329a16.812 16.812 0 01-2.276 2.641v-4.097c.09-.128.18-.257.266-.388 1.495-2.26 2.428-4.94 2.771-7.964l.078-.686-.647-.24a10.363 10.363 0 00-2.468-.604V8.92c2.727.228 5.01 1.443 5.883 1.967-.042 2.518-.42 4.887-1.127 7.05a19.212 19.212 0 01-2.48 5.032zm9.089 3.547l-.097.87-.877.096-5.492-5.414c.228-.42.442-.851.643-1.292l5.823 5.74zM22.327 9.17c-.34-.193-.774-.421-1.286-.655l1.278-1.277.97.97-.962.962zm2.984-2.6l-.68.486-1.16-1.161.485-.68 1.809-.453-.454 1.808zm2.817-3.645a.37.37 0 01-.526 0 .37.37 0 010-.527.371.371 0 01.526 0 .373.373 0 010 .527z" fill="#DF0D14"/></g><defs><clipPath id="kclip0"><path fill="#fff" d="M0 0h30v30H0z"/>
</clipPath>
</defs>
</symbol>
</svg>