<svg width="34" height="60" viewBox="0 0 34 60" fill="none" xmlns="http://www.w3.org/2000/svg"><path d="M4.927 19.975c.573.223 1.131.485 1.67.783l1.387-1.189C13.686 14.688 14.361 6.113 9.494.4L9.153 0 7.146 1.704C1.776 6.296.813 14.232 4.927 19.975zM.69 21.676l-.332 1.379a12.654 12.654 0 006.105 14.018 15.691 15.691 0 015.202-.83A12.714 12.714 0 005.985 23.7l-.023-.017a10.997 10.997 0 00-2.39-1.19l-.397-.141a11.797 11.797 0 00-1.13-.342L.69 21.676zM16.502 49.55c2.18-1.15 4.6-1.764 7.064-1.793l-.456-1.061c-2.724-6.274-9.923-9.27-16.294-6.778-.03.016-.14.058-.24.097l-1.486.635.565 1.303a12.586 12.586 0 0010.847 7.597zm16.269 6.731l1-.999-1.001-1c-4.968-4.958-13.012-4.958-17.98 0l-1 1 1 1c4.969 4.958 13.013 4.958 17.981 0z" fill="#F2F2F2"/></svg>