<svg width="100" height="100" viewBox="0 0 100 100" fill="none" xmlns="http://www.w3.org/2000/svg"><rect width="100" height="100" rx="4" fill="#262626"/><path stroke="#7B7B7B" stroke-width="2" d="M11 11h28v10H11zm50 0h28v10H61z"/><path stroke="#7B7B7B" d="M40.5 15.5h19v1h-19z"/><path stroke="#7B7B7B" stroke-width="2" d="M11 79h28v10H11zm50 0h28v10H61z"/><path stroke="#7B7B7B" d="M40.5 83.5h19v1h-19z"/><path stroke="#7B7B7B" stroke-width="2" d="M11 57h28v10H11zm50 0h28v10H61z"/><path stroke="#7B7B7B" d="M40.5 61.5h19v1h-19z"/><path stroke="#7B7B7B" stroke-width="2" d="M11 33h28v10H11zm50 0h28v10H61z"/><path stroke="#7B7B7B" d="M40.5 37.5h19v1h-19z"/></svg>