<svg width="100" height="100" viewBox="0 0 100 100" fill="none" xmlns="http://www.w3.org/2000/svg"><rect width="100" height="100" rx="4" fill="#262626"/><path stroke="#7B7B7B" stroke-width="2" d="M11 11h18v10H11zm30 11h18v10H41zm30 23h18v10H71zM11 33h18v10H11z"/><path stroke="#7B7B7B" d="M30.5 15.5h5v1h-5zm30 11h5v1h-5zm-26 0h5v1h-5zm30 23h5v1h-5zm-34-12h5v1h-5zm30 35h5v1h-5z"/><path stroke="#7B7B7B" d="M34.5 17.5h1v19h-1zm30 11h1v43h-1z"/><path stroke="#7B7B7B" stroke-width="2" d="M11 57h18v10H11zm30 11h18v10H41zM11 79h18v10H11z"/><path stroke="#7B7B7B" d="M30.5 61.5h5v1h-5zm4 11h5v1h-5zm-4 11h5v1h-5z"/><path stroke="#7B7B7B" d="M34.5 63.5h1v19h-1z"/></svg>