<svg width="100" height="100" viewBox="0 0 100 100" fill="none" xmlns="http://www.w3.org/2000/svg"><rect width="100" height="100" rx="4" fill="#262626"/><path stroke="#7B7B7B" stroke-width="2" d="M11 11h14v6H11zm20 0h14v6H31z"/><path stroke="#7B7B7B" d="M26.5 13.5h3v1h-3z"/><path stroke="#7B7B7B" stroke-width="2" d="M11 23h14v6H11zm20 0h14v6H31z"/><path stroke="#7B7B7B" d="M26.5 25.5h3v1h-3z"/><path stroke="#7B7B7B" stroke-width="2" d="M55 11h14v6H55zm20 0h14v6H75z"/><path stroke="#7B7B7B" d="M70.5 13.5h3v1h-3z"/><path stroke="#7B7B7B" stroke-width="2" d="M55 23h14v6H55zm20 0h14v6H75z"/><path stroke="#7B7B7B" d="M70.5 25.5h3v1h-3z"/><path stroke="#7B7B7B" stroke-width="2" d="M11 41h14v6H11zm20 0h14v6H31z"/><path stroke="#7B7B7B" d="M26.5 43.5h3v1h-3z"/><path stroke="#7B7B7B" stroke-width="2" d="M11 53h14v6H11zm20 0h14v6H31z"/><path stroke="#7B7B7B" d="M26.5 55.5h3v1h-3z"/><path stroke="#7B7B7B" stroke-width="2" d="M55 41h14v6H55zm20 0h14v6H75z"/><path stroke="#7B7B7B" d="M70.5 43.5h3v1h-3z"/><path stroke="#7B7B7B" stroke-width="2" d="M55 53h14v6H55zm20 0h14v6H75z"/><path stroke="#7B7B7B" d="M70.5 55.5h3v1h-3z"/><path stroke="#7B7B7B" stroke-width="2" d="M11 71h14v6H11zm20 0h14v6H31z"/><path stroke="#7B7B7B" d="M26.5 73.5h3v1h-3z"/><path stroke="#7B7B7B" stroke-width="2" d="M11 83h14v6H11zm20 0h14v6H31z"/><path stroke="#7B7B7B" d="M26.5 85.5h3v1h-3z"/><path stroke="#7B7B7B" stroke-width="2" d="M55 71h14v6H55zm20 0h14v6H75z"/><path stroke="#7B7B7B" d="M70.5 73.5h3v1h-3z"/><path stroke="#7B7B7B" stroke-width="2" d="M55 83h14v6H55zm20 0h14v6H75z"/><path stroke="#7B7B7B" d="M70.5 85.5h3v1h-3z"/></svg>