<svg width="3511" height="621" viewBox="0 0 3511 621" fill="none" xmlns="http://www.w3.org/2000/svg">
<g clip-path="url(#clip0_22_983)">
<g opacity="0.3">
<path d="M960.76 4L953.83 0L597.627 616.961L604.555 620.961L960.76 4ZM872.23 4L865.31 0L509.103 616.961L516.032 620.961L872.23 4ZM783.71 4L776.78 0L420.58 616.961L427.508 620.961L783.71 4ZM695.19 4L688.26 0L332.057 616.961L338.985 620.961L695.19 4ZM606.664 4L599.736 0L243.533 616.961L250.461 620.961L606.664 4ZM518.141 4L511.212 0L155.01 616.961L161.938 620.961L518.141 4ZM429.617 4L422.689 0L66.486 616.961L73.414 620.961L429.617 4ZM341.094 4L334.166 0L-22.037 616.961L-15.109 620.961L341.094 4ZM252.57 4L245.642 0L-110.561 616.961L-103.632 620.961L252.57 4ZM164.047 4L157.119 0L-199.084 616.961L-192.156 620.961L164.047 4ZM75.523 4L68.595 0L-287.607 616.961L-280.679 620.961L75.523 4ZM916.5 4L909.57 0L553.365 616.961L560.293 620.961L916.5 4ZM827.97 4L821.04 0L464.842 616.961L471.77 620.961L827.97 4ZM739.45 4L732.52 0L376.318 616.961L383.247 620.961L739.45 4ZM650.93 4L643.998 0L287.795 616.961L294.723 620.961L650.93 4ZM562.402 4L555.474 0L199.271 616.961L206.2 620.961L562.402 4ZM473.879 4L466.951 0L110.748 616.961L117.676 620.961L473.879 4ZM385.355 4L378.427 0L22.225 616.961L29.153 620.961L385.355 4ZM296.832 4L289.904 0L-66.299 616.961L-59.371 620.961L296.832 4ZM208.309 4L201.38 0L-154.822 616.961L-147.894 620.961L208.309 4ZM119.785 4L112.857 0L-243.346 616.961L-236.418 620.961L119.785 4ZM31.262 4L24.334 0L-331.869 616.961L-324.941 620.961L31.262 4ZM938.63 4L931.7 0L575.496 616.961L582.424 620.961L938.63 4ZM850.1 4L843.18 0L486.973 616.961L493.901 620.961L850.1 4ZM761.58 4L754.65 0L398.449 616.961L405.377 620.961L761.58 4ZM673.06 4L666.13 0L309.926 616.961L316.854 620.961L673.06 4ZM584.533 4L577.605 0L221.402 616.961L228.331 620.961L584.533 4ZM496.01 4L489.082 0L132.879 616.961L139.807 620.961L496.01 4ZM407.486 4L400.558 0L44.355 616.961L51.284 620.961L407.486 4ZM318.963 4L312.035 0L-44.168 616.961L-37.24 620.961L318.963 4ZM230.439 4L223.511 0L-132.691 616.961L-125.763 620.961L230.439 4ZM141.916 4L134.988 0L-221.215 616.961L-214.287 620.961L141.916 4ZM53.393 4L46.464 0L-309.738 616.961L-302.81 620.961L53.393 4ZM894.37 4L887.44 0L531.234 616.961L538.163 620.961L894.37 4ZM805.84 4L798.91 0L442.711 616.961L449.639 620.961L805.84 4ZM717.32 4L710.39 0L354.187 616.961L361.116 620.961L717.32 4ZM628.795 4L621.867 0L265.664 616.961L272.592 620.961L628.795 4ZM540.271 4L533.343 0L177.141 616.961L184.069 620.961L540.271 4ZM451.748 4L444.82 0L88.617 616.961L95.545 620.961L451.748 4ZM363.225 4L356.296 0L0.0939941 616.961L7.022 620.961L363.225 4ZM274.701 4L267.773 0L-88.43 616.961L-81.502 620.961L274.701 4ZM186.178 4L179.25 0L-176.953 616.961L-170.025 620.961L186.178 4ZM97.654 4L90.726 0L-265.477 616.961L-258.549 620.961L97.654 4ZM9.13101 4L2.203 0L-354 616.961L-347.072 620.961L9.13101 4Z" fill="#F2F2F2"/>
<path d="M1933.76 4L1926.83 0L1570.63 616.961L1577.55 620.961L1933.76 4ZM1845.23 4L1838.31 0L1482.1 616.961L1489.03 620.961L1845.23 4ZM1756.71 4L1749.78 0L1393.58 616.961L1400.51 620.961L1756.71 4ZM1668.19 4L1661.26 0L1305.06 616.961L1311.98 620.961L1668.19 4ZM1579.66 4L1572.74 0L1216.53 616.961L1223.46 620.961L1579.66 4ZM1491.14 4L1484.21 0L1128.01 616.961L1134.94 620.961L1491.14 4ZM1402.62 4L1395.69 0L1039.49 616.961L1046.41 620.961L1402.62 4ZM1314.09 4L1307.17 0L950.963 616.961L957.891 620.961L1314.09 4ZM1225.57 4L1218.64 0L862.439 616.961L869.368 620.961L1225.57 4ZM1137.05 4L1130.12 0L773.916 616.961L780.844 620.961L1137.05 4ZM1048.52 4L1041.59 0L685.393 616.961L692.321 620.961L1048.52 4ZM1889.5 4L1882.57 0L1526.36 616.961L1533.29 620.961L1889.5 4ZM1800.97 4L1794.04 0L1437.84 616.961L1444.77 620.961L1800.97 4ZM1712.45 4L1705.52 0L1349.32 616.961L1356.25 620.961L1712.45 4ZM1623.93 4L1617 0L1260.79 616.961L1267.72 620.961L1623.93 4ZM1535.4 4L1528.47 0L1172.27 616.961L1179.2 620.961L1535.4 4ZM1446.88 4L1439.95 0L1083.75 616.961L1090.68 620.961L1446.88 4ZM1358.35 4L1351.43 0L995.225 616.961L1002.15 620.961L1358.35 4ZM1269.83 4L1262.9 0L906.701 616.961L913.629 620.961L1269.83 4ZM1181.31 4L1174.38 0L818.178 616.961L825.106 620.961L1181.31 4ZM1092.79 4L1085.86 0L729.654 616.961L736.582 620.961L1092.79 4ZM1004.26 4L997.334 0L641.131 616.961L648.059 620.961L1004.26 4ZM1911.63 4L1904.7 0L1548.5 616.961L1555.42 620.961L1911.63 4ZM1823.1 4L1816.18 0L1459.97 616.961L1466.9 620.961L1823.1 4ZM1734.58 4L1727.65 0L1371.45 616.961L1378.38 620.961L1734.58 4ZM1646.06 4L1639.13 0L1282.93 616.961L1289.85 620.961L1646.06 4ZM1557.53 4L1550.6 0L1194.4 616.961L1201.33 620.961L1557.53 4ZM1469.01 4L1462.08 0L1105.88 616.961L1112.81 620.961L1469.01 4ZM1380.49 4L1373.56 0L1017.35 616.961L1024.28 620.961L1380.49 4ZM1291.96 4L1285.03 0L928.832 616.961L935.76 620.961L1291.96 4ZM1203.44 4L1196.51 0L840.309 616.961L847.237 620.961L1203.44 4ZM1114.92 4L1107.99 0L751.785 616.961L758.713 620.961L1114.92 4ZM1026.39 4L1019.46 0L663.262 616.961L670.19 620.961L1026.39 4ZM1867.37 4L1860.44 0L1504.23 616.961L1511.16 620.961L1867.37 4ZM1778.84 4L1771.91 0L1415.71 616.961L1422.64 620.961L1778.84 4ZM1690.32 4L1683.39 0L1327.19 616.961L1334.12 620.961L1690.32 4ZM1601.79 4L1594.87 0L1238.66 616.961L1245.59 620.961L1601.79 4ZM1513.27 4L1506.34 0L1150.14 616.961L1157.07 620.961L1513.27 4ZM1424.75 4L1417.82 0L1061.62 616.961L1068.55 620.961L1424.75 4ZM1336.22 4L1329.3 0L973.094 616.961L980.022 620.961L1336.22 4ZM1247.7 4L1240.77 0L884.57 616.961L891.498 620.961L1247.7 4ZM1159.18 4L1152.25 0L796.047 616.961L802.975 620.961L1159.18 4ZM1070.65 4L1063.73 0L707.523 616.961L714.451 620.961L1070.65 4ZM982.131 4L975.203 0L619 616.961L625.928 620.961L982.131 4Z" fill="#F2F2F2"/>
<path d="M2908 4L2901.07 0L2544.87 616.961L2551.79 620.961L2908 4ZM2819.47 4L2812.55 0L2456.34 616.961L2463.27 620.961L2819.47 4ZM2730.95 4L2724.02 0L2367.82 616.961L2374.75 620.961L2730.95 4ZM2642.43 4L2635.5 0L2279.3 616.961L2286.23 620.961L2642.43 4ZM2553.9 4L2546.98 0L2190.77 616.961L2197.7 620.961L2553.9 4ZM2465.38 4L2458.45 0L2102.25 616.961L2109.18 620.961L2465.38 4ZM2376.86 4L2369.93 0L2013.73 616.961L2020.65 620.961L2376.86 4ZM2288.33 4L2281.41 0L1925.2 616.961L1932.13 620.961L2288.33 4ZM2199.81 4L2192.88 0L1836.68 616.961L1843.61 620.961L2199.81 4ZM2111.29 4L2104.36 0L1748.16 616.961L1755.08 620.961L2111.29 4ZM2022.76 4L2015.83 0L1659.63 616.961L1666.56 620.961L2022.76 4ZM2863.74 4L2856.81 0L2500.6 616.961L2507.53 620.961L2863.74 4ZM2775.21 4L2768.28 0L2412.08 616.961L2419.01 620.961L2775.21 4ZM2686.69 4L2679.76 0L2323.56 616.961L2330.49 620.961L2686.69 4ZM2598.17 4L2591.24 0L2235.03 616.961L2241.96 620.961L2598.17 4ZM2509.64 4L2502.71 0L2146.51 616.961L2153.44 620.961L2509.64 4ZM2421.12 4L2414.19 0L2057.99 616.961L2064.92 620.961L2421.12 4ZM2332.59 4L2325.67 0L1969.47 616.961L1976.39 620.961L2332.59 4ZM2244.07 4L2237.14 0L1880.94 616.961L1887.87 620.961L2244.07 4ZM2155.55 4L2148.62 0L1792.42 616.961L1799.35 620.961L2155.55 4ZM2067.02 4L2060.1 0L1703.89 616.961L1710.82 620.961L2067.02 4ZM1978.5 4L1971.57 0L1615.37 616.961L1622.3 620.961L1978.5 4ZM2885.87 4L2878.94 0L2522.74 616.961L2529.66 620.961L2885.87 4ZM2797.34 4L2790.42 0L2434.21 616.961L2441.14 620.961L2797.34 4ZM2708.82 4L2701.89 0L2345.69 616.961L2352.62 620.961L2708.82 4ZM2620.3 4L2613.37 0L2257.17 616.961L2264.09 620.961L2620.3 4ZM2531.77 4L2524.84 0L2168.64 616.961L2175.57 620.961L2531.77 4ZM2443.25 4L2436.32 0L2080.12 616.961L2087.05 620.961L2443.25 4ZM2354.73 4L2347.8 0L1991.59 616.961L1998.52 620.961L2354.73 4ZM2266.2 4L2259.27 0L1903.07 616.961L1910 620.961L2266.2 4ZM2177.68 4L2170.75 0L1814.55 616.961L1821.48 620.961L2177.68 4ZM2089.16 4L2082.23 0L1726.02 616.961L1732.95 620.961L2089.16 4ZM2000.63 4L1993.7 0L1637.5 616.961L1644.43 620.961L2000.63 4ZM2841.61 4L2834.68 0L2478.47 616.961L2485.4 620.961L2841.61 4ZM2753.08 4L2746.15 0L2389.95 616.961L2396.88 620.961L2753.08 4ZM2664.56 4L2657.63 0L2301.43 616.961L2308.36 620.961L2664.56 4ZM2576.03 4L2569.11 0L2212.9 616.961L2219.83 620.961L2576.03 4ZM2487.51 4L2480.58 0L2124.38 616.961L2131.31 620.961L2487.51 4ZM2398.99 4L2392.06 0L2035.86 616.961L2042.78 620.961L2398.99 4ZM2310.46 4L2303.54 0L1947.33 616.961L1954.26 620.961L2310.46 4ZM2221.94 4L2215.01 0L1858.81 616.961L1865.74 620.961L2221.94 4ZM2133.42 4L2126.49 0L1770.29 616.961L1777.22 620.961L2133.42 4ZM2044.89 4L2037.97 0L1681.76 616.961L1688.69 620.961L2044.89 4ZM1956.37 4L1949.44 0L1593.24 616.961L1600.17 620.961L1956.37 4Z" fill="#F2F2F2"/>
<path d="M3881 4L3874.07 0L3517.87 616.961L3524.79 620.961L3881 4ZM3792.47 4L3785.55 0L3429.34 616.961L3436.27 620.961L3792.47 4ZM3703.95 4L3697.02 0L3340.82 616.961L3347.75 620.961L3703.95 4ZM3615.43 4L3608.5 0L3252.3 616.961L3259.23 620.961L3615.43 4ZM3526.9 4L3519.98 0L3163.77 616.961L3170.7 620.961L3526.9 4ZM3438.38 4L3431.45 0L3075.25 616.961L3082.18 620.961L3438.38 4ZM3349.86 4L3342.93 0L2986.73 616.961L2993.65 620.961L3349.86 4ZM3261.33 4L3254.41 0L2898.2 616.961L2905.13 620.961L3261.33 4ZM3172.81 4L3165.88 0L2809.68 616.961L2816.61 620.961L3172.81 4ZM3084.29 4L3077.36 0L2721.16 616.961L2728.08 620.961L3084.29 4ZM2995.76 4L2988.83 0L2632.63 616.961L2639.56 620.961L2995.76 4ZM3836.74 4L3829.81 0L3473.6 616.961L3480.53 620.961L3836.74 4ZM3748.21 4L3741.28 0L3385.08 616.961L3392.01 620.961L3748.21 4ZM3659.69 4L3652.76 0L3296.56 616.961L3303.49 620.961L3659.69 4ZM3571.17 4L3564.24 0L3208.03 616.961L3214.96 620.961L3571.17 4ZM3482.64 4L3475.71 0L3119.51 616.961L3126.44 620.961L3482.64 4ZM3394.12 4L3387.19 0L3030.99 616.961L3037.92 620.961L3394.12 4ZM3305.59 4L3298.67 0L2942.46 616.961L2949.39 620.961L3305.59 4ZM3217.07 4L3210.14 0L2853.94 616.961L2860.87 620.961L3217.07 4ZM3128.55 4L3121.62 0L2765.42 616.961L2772.35 620.961L3128.55 4ZM3040.02 4L3033.1 0L2676.89 616.961L2683.82 620.961L3040.02 4ZM2951.5 4L2944.57 0L2588.37 616.961L2595.3 620.961L2951.5 4ZM3858.87 4L3851.94 0L3495.74 616.961L3502.66 620.961L3858.87 4ZM3770.34 4L3763.42 0L3407.21 616.961L3414.14 620.961L3770.34 4ZM3681.82 4L3674.89 0L3318.69 616.961L3325.62 620.961L3681.82 4ZM3593.3 4L3586.37 0L3230.17 616.961L3237.09 620.961L3593.3 4ZM3504.77 4L3497.84 0L3141.64 616.961L3148.57 620.961L3504.77 4ZM3416.25 4L3409.32 0L3053.12 616.961L3060.05 620.961L3416.25 4ZM3327.73 4L3320.8 0L2964.59 616.961L2971.52 620.961L3327.73 4ZM3239.2 4L3232.27 0L2876.07 616.961L2883 620.961L3239.2 4ZM3150.68 4L3143.75 0L2787.55 616.961L2794.48 620.961L3150.68 4ZM3062.16 4L3055.23 0L2699.02 616.961L2705.95 620.961L3062.16 4ZM2973.63 4L2966.7 0L2610.5 616.961L2617.43 620.961L2973.63 4ZM3814.61 4L3807.68 0L3451.47 616.961L3458.4 620.961L3814.61 4ZM3726.08 4L3719.15 0L3362.95 616.961L3369.88 620.961L3726.08 4ZM3637.56 4L3630.63 0L3274.43 616.961L3281.36 620.961L3637.56 4ZM3549.03 4L3542.11 0L3185.9 616.961L3192.83 620.961L3549.03 4ZM3460.51 4L3453.58 0L3097.38 616.961L3104.31 620.961L3460.51 4ZM3371.99 4L3365.06 0L3008.86 616.961L3015.79 620.961L3371.99 4ZM3283.46 4L3276.54 0L2920.33 616.961L2927.26 620.961L3283.46 4ZM3194.94 4L3188.01 0L2831.81 616.961L2838.74 620.961L3194.94 4ZM3106.42 4L3099.49 0L2743.29 616.961L2750.21 620.961L3106.42 4ZM3017.89 4L3010.97 0L2654.76 616.961L2661.69 620.961L3017.89 4ZM2929.37 4L2922.44 0L2566.24 616.961L2573.17 620.961L2929.37 4Z" fill="#F2F2F2"/>
</g>
</g>
<defs>
<clipPath id="clip0_22_983">
<rect width="3511" height="621" fill="white"/>
</clipPath>
</defs>
</svg>
